<svg xmlns="http://www.w3.org/2000/svg" width="1024" height="1024" viewBox="0 0 1024 1024">
  <!-- NeoIPC symbol © Fondazione Penta ETS. All rights reserved. Used under the NeoIPC brand guideline; not covered by the repository's MIT/CC-BY licences (see the repository COPYRIGHT file). -->
  <rect width="1024" height="1024" rx="184" ry="184" fill="#FFFFFF"/>
  <g transform="translate(-415.762,-80.321) scale(2.62745)">
    <path fill-rule="nonzero" fill="#0083C1" fill-opacity="1" d="M 344.03125 202.027344 L 348.339844 209.886719 C 348.925781 210.953125 349.808594 211.832031 350.875 212.414062 L 358.746094 216.703125 C 359.890625 217.328125 359.890625 218.96875 358.75 219.597656 L 350.894531 223.910156 C 349.824219 224.496094 348.945312 225.375 348.363281 226.445312 L 344.074219 234.3125 C 343.449219 235.457031 341.808594 235.460938 341.179688 234.316406 L 336.871094 226.460938 C 336.285156 225.390625 335.402344 224.515625 334.332031 223.929688 L 326.464844 219.640625 C 325.320312 219.015625 325.316406 217.375 326.460938 216.746094 L 334.320312 212.4375 C 335.386719 211.851562 336.265625 210.972656 336.847656 209.898438 L 341.136719 202.03125 C 341.761719 200.886719 343.402344 200.882812 344.03125 202.027344 "/>
    <path fill-rule="nonzero" fill="#0083C1" fill-opacity="1" d="M 377.597656 184.820312 L 380.757812 190.582031 C 381.191406 191.367188 381.835938 192.011719 382.617188 192.4375 L 388.390625 195.585938 C 389.230469 196.042969 389.230469 197.246094 388.394531 197.707031 L 382.632812 200.867188 C 381.847656 201.296875 381.203125 201.941406 380.777344 202.726562 L 377.628906 208.5 C 377.171875 209.339844 375.96875 209.339844 375.507812 208.503906 L 372.347656 202.738281 C 371.917969 201.957031 371.269531 201.3125 370.488281 200.882812 L 364.714844 197.738281 C 363.875 197.28125 363.875 196.074219 364.710938 195.617188 L 370.476562 192.453125 C 371.257812 192.023438 371.902344 191.378906 372.332031 190.59375 L 375.476562 184.820312 C 375.933594 183.984375 377.136719 183.980469 377.597656 184.820312 "/>
    <path fill-rule="nonzero" fill="#0083C1" fill-opacity="1" d="M 390.84375 217.9375 L 393.386719 222.578125 C 393.734375 223.207031 394.253906 223.726562 394.886719 224.070312 L 399.53125 226.601562 C 400.207031 226.96875 400.207031 227.941406 399.535156 228.308594 L 394.894531 230.855469 C 394.265625 231.199219 393.746094 231.71875 393.402344 232.351562 L 390.867188 236.996094 C 390.5 237.675781 389.53125 237.675781 389.160156 237 L 386.617188 232.359375 C 386.269531 231.730469 385.75 231.210938 385.117188 230.867188 L 380.472656 228.335938 C 379.796875 227.964844 379.796875 226.996094 380.46875 226.628906 L 385.109375 224.082031 C 385.742188 223.734375 386.257812 223.214844 386.601562 222.585938 L 389.136719 217.9375 C 389.503906 217.265625 390.472656 217.261719 390.84375 217.9375 "/>
    <path fill-rule="nonzero" fill="#FF9015" fill-opacity="1" d="M 275.199219 271.804688 C 277.625 271.804688 279.984375 272.734375 281.847656 274.421875 C 295.414062 286.753906 312.992188 293.53125 331.335938 293.507812 C 348.144531 293.484375 364.570312 287.640625 377.574219 277.0625 C 377.785156 276.886719 382.816406 272.789062 388.230469 268.921875 L 388.6875 268.640625 C 390.988281 266.894531 393.824219 265.933594 396.714844 265.929688 C 400.761719 265.921875 404.539062 267.722656 407.082031 270.863281 C 410.457031 275.027344 411.003906 280.773438 408.503906 285.464844 C 408.007812 286.433594 406.273438 290.082031 404.949219 293.027344 C 405.046875 292.996094 405.148438 292.964844 405.242188 292.933594 C 416.105469 289.429688 432.757812 278.144531 446.496094 265.042969 C 452.957031 258.292969 456.722656 254.488281 457.6875 253.742188 C 460.828125 251.304688 464.101562 250.066406 467.421875 250.058594 C 469.472656 250.058594 471.511719 250.523438 473.488281 251.453125 C 476.355469 252.796875 478.417969 255.039062 479.957031 257.578125 C 480.019531 257.339844 481.234375 254.585938 481.652344 250.59375 C 481.703125 250.101562 481.714844 249.738281 481.710938 249.65625 C 481.386719 233.253906 463.644531 222.71875 448.601562 229.402344 C 447.339844 229.960938 445.359375 231.3125 444.992188 231.605469 C 425.183594 247.484375 400.636719 256.625 374.703125 257.328125 C 347.144531 258.078125 321.109375 249.71875 301 233.8125 C 296.335938 230.125 295.8125 224.820312 299.441406 218.039062 C 301.933594 213.339844 303.390625 208.398438 303.832031 203.222656 C 305.398438 184.90625 293.113281 167.296875 275.332031 162.644531 C 271.960938 161.761719 268.574219 161.332031 265.226562 161.335938 C 257.824219 161.34375 250.601562 163.492188 244.234375 167.675781 C 235.105469 173.667969 228.925781 183.289062 227.273438 194.074219 C 224.492188 212.136719 234.554688 229.371094 251.738281 235.996094 C 258.210938 238.480469 258.804688 243.269531 259.195312 246.4375 L 259.3125 247.308594 C 260.675781 257.234375 263.558594 266.644531 267.648438 275.410156 C 269.539062 273.1875 272.261719 271.808594 275.199219 271.804688 "/>
    <path fill-rule="nonzero" fill="#0083C1" fill-opacity="1" d="M 357.40625 172.878906 C 357.960938 173.03125 358.535156 173.109375 359.105469 173.109375 C 359.984375 173.109375 360.84375 172.929688 361.652344 172.574219 L 362.605469 172.285156 C 368.214844 170.21875 374.144531 167.613281 374.203125 167.585938 C 384.453125 163.085938 395.292969 160.804688 406.433594 160.804688 C 413.605469 160.804688 420.785156 161.777344 427.765625 163.695312 C 447.121094 169.007812 463.683594 181.273438 474.402344 198.226562 C 474.835938 198.914062 475.410156 199.359375 476.105469 199.550781 C 476.347656 199.617188 476.601562 199.652344 476.859375 199.652344 C 477.84375 199.652344 478.820312 199.167969 479.414062 198.394531 C 479.800781 197.882812 480.191406 197.019531 479.851562 195.796875 C 469.230469 157.324219 438.757812 126.867188 400.328125 116.316406 C 390.097656 113.503906 379.578125 112.082031 369.074219 112.082031 C 337.605469 112.082031 308.175781 124.816406 288.324219 147.019531 C 286.535156 149.019531 281.054688 155.824219 280.765625 156.214844 C 280.59375 156.46875 280.417969 156.71875 280.246094 156.976562 C 286.054688 158.992188 291.175781 162.027344 295.625 166.046875 C 299.351562 163.882812 303.8125 161.222656 303.8125 161.21875 C 321.925781 151.496094 341.703125 144.878906 354.25 144.339844 C 354.664062 144.320312 355.09375 144.3125 355.519531 144.3125 C 356.867188 144.3125 358.378906 144.394531 360.015625 144.554688 C 360.28125 144.582031 360.535156 144.625 360.773438 144.691406 C 362.050781 145.042969 363.097656 145.945312 363.652344 147.164062 C 364.207031 148.398438 364.191406 149.800781 363.597656 151.019531 C 362.558594 153.15625 354.53125 162.21875 354.457031 162.296875 C 352.679688 164.167969 352.199219 166.90625 353.230469 169.269531 C 354.007812 171.046875 355.53125 172.363281 357.40625 172.878906 "/>
    <path fill-rule="nonzero" fill="#0083C1" fill-opacity="1" d="M 370.246094 338.789062 C 413.167969 338.730469 452.34375 315.414062 470.199219 279.382812 C 471.390625 276.984375 474.859375 268.96875 475.039062 268.511719 C 476.515625 264.257812 474.589844 259.605469 470.550781 257.707031 C 469.492188 257.210938 468.476562 256.96875 467.441406 256.96875 L 467.429688 256.96875 C 465.652344 256.972656 463.851562 257.699219 461.925781 259.199219 C 461.15625 259.796875 455.117188 266.03125 451.488281 269.820312 C 436.613281 284.015625 419.308594 295.652344 407.363281 299.511719 C 405.808594 300.015625 403.917969 300.460938 401.746094 300.839844 C 401.484375 300.886719 401.226562 300.90625 400.976562 300.90625 C 399.652344 300.90625 398.402344 300.316406 397.546875 299.289062 C 396.679688 298.25 396.328125 296.890625 396.574219 295.558594 C 396.988281 293.320312 402.148438 282.699219 402.386719 282.253906 C 403.597656 279.980469 403.335938 277.214844 401.710938 275.210938 C 400.492188 273.703125 398.675781 272.839844 396.734375 272.839844 C 395.246094 272.84375 393.859375 273.335938 392.710938 274.265625 L 391.871094 274.796875 C 387.015625 278.28125 381.992188 282.375 381.941406 282.414062 C 367.703125 294 349.734375 300.394531 331.34375 300.417969 C 311.207031 300.417969 292.015625 293 277.199219 279.539062 C 276.601562 278.992188 275.933594 278.714844 275.214844 278.714844 C 274.128906 278.71875 273.066406 279.359375 272.503906 280.347656 C 272.195312 280.890625 271.800781 282 272.59375 283.332031 C 293.042969 317.539062 330.460938 338.789062 370.246094 338.789062 "/>
  </g>
</svg>
